<?xml version="1.0" encoding="utf-8"?>
<!-- Generator: Adobe Illustrator 20.1.0, SVG Export Plug-In . SVG Version: 6.00 Build 0)  -->
<svg version="1.1" id="Layer_1" xmlns="http://www.w3.org/2000/svg" xmlns:xlink="http://www.w3.org/1999/xlink" x="0px" y="0px"
	 viewBox="0 0 270.7 56.3" style="enable-background:new 0 0 270.7 56.3;" xml:space="preserve">
<style type="text/css">
	.st0{fill:#fcfcfc;}
</style>
<g>
	<path class="st0" d="M21.7,45.1C11,45.1,1.5,37.3,1.5,24.7c0-11.9,8.3-21.4,22.1-21.4c7.6,0,10.9,4.2,10.9,8V14h-0.3
		c-2.7-2.3-7.3-3.4-11.5-3.4c-7.5,0-12.9,5.5-12.9,13c0,10.2,5.5,14.2,12.8,14.2c3.9,0,4.8-1.5,4.8-3.8v-3.2c0-3.2-0.6-5.9-0.6-5.9
		H31c2.2,0,4.1,1.9,4.1,3.7V35C35.2,41.1,31.8,45.1,21.7,45.1z"/>
	<path class="st0" d="M55.7,11.8c9.6,0,15,7.7,15,16.1c0,9.6-5.5,17.2-15.8,17.2c-9.6,0-15-7.6-15-16C40,19.5,45.5,11.8,55.7,11.8z
		 M55,18.9c-4.5,0-6.8,3.8-6.8,9c0,6.3,2.3,10.1,7.6,10.1c4.6,0,6.8-3.8,6.8-9C62.6,22.7,60.2,18.9,55,18.9z"/>
	<path class="st0" d="M91.6,44.7h-3.4c-6.8,0-11.2-2.7-11.2-9V5.4c1.9-0.8,6.9-1.5,10-1.5h4.2c9.3,0,19,6.2,19,19.7
		C110.1,35.8,102.1,44.7,91.6,44.7z M89.9,10.6h-1.8c-1,0-3.1,0.4-3.1,0.4v23.2c0,2.4,1.1,3.4,4.1,3.4h1.4c6.7,0,11.4-5.7,11.4-13
		C101.9,15.6,96.9,10.6,89.9,10.6z"/>
	<path class="st0" d="M121.1,10.3c-2.5,0-4.6-2.1-4.6-4.7c0-2.5,2.1-4.6,4.6-4.6s4.7,2.1,4.7,4.6C125.8,8.1,123.7,10.3,121.1,10.3z
		 M126.7,44.7c-6.1,0-9.5-3.5-9.5-9.9c0-1.8,0-21.5,0-21.5h2.2c3.5,0,5.7,1.9,5.7,5.9V34c0,3.2,1.4,4.2,4.8,4.2h1.5v1.7
		C131.4,43.3,130.1,44.7,126.7,44.7z"/>
	<path class="st0" d="M161.8,44.4c-3.5,0-5.8-2.2-5.8-5.2V26.5c0-5.4-2.4-7.7-6.4-7.7c-3.4,0-5.8,2.6-5.8,7.1v18.4h-2.4
		c-3.4,0-5.5-2.2-5.5-5.2V25.4c0-6.7,4.4-13.6,14.3-13.6c7.5,0,13.7,5,13.7,14v18.5H161.8z"/>
	<path class="st0" d="M199.5,35.5c0.1,1.3,0.1,3,0.1,4.1c0,8-5.3,15.1-15.6,15.1c-6.5,0-11-3.2-11-7v-3.6h0.4
		c1.9,2,5.5,3.4,10.1,3.4c5.7,0,8.3-2.7,8.3-7.3c0-0.5,0-1.1-0.1-1.7c0-0.5-0.1-1.3-0.1-1.6v-0.8c-0.6,2.3-3.7,4.7-8.2,4.7
		c-7.7,0-13.2-5.4-13.2-12.9c0-9,5.9-16.2,16.2-16.2c7.9,0,13,5.8,13,13.9v5.4C199.4,32.2,199.5,34,199.5,35.5z M178.4,27
		c0,4.1,2.5,7.2,6.3,7.2c4,0,6.8-3,6.8-8c0-5-2.5-7.4-6-7.4C181.5,18.8,178.4,22.2,178.4,27z"/>
	<path class="st0" d="M233,44.4c-3.3,0-5.4-1.9-5.4-5.3v-13c0-5.2-2.8-7.3-6.3-7.3c-2.5,0-5.7,1.9-5.7,7.5v18.1H213
		c-3.7,0-5.4-2.1-5.4-5.3V1.9h2.5c3.8,0,5.6,2.1,5.6,5.1c0,0,0,6.3,0,9.1c1.2-1.9,3.9-4.2,6.9-4.2c8.2,0,13,4.9,13,13.9v18.6H233z"
		/>
	<path class="st0" d="M246.8,54.7c-3,0-5.5-1.9-5.5-4.9v-1.5l4.5-0.3c2.9-0.2,3.9-1.4,5.6-5.8c-4.2-6.3-10.2-22.1-11.3-29.6h4.2
		c2.2,0,4.2,1.5,4.6,3.7c1.1,6.1,3.5,12.7,6.4,18.4c2.6-6,5.5-15.6,6.2-22.1h3.4c2.5,0,3.7,1.1,3.7,3.7c0,3.4-5.5,17.9-7,21.3
		C255.6,51.4,252.5,54.7,246.8,54.7z"/>
</g>
</svg>
